<?xml version="1.0" encoding="UTF-8"?><svg id="Layer_1" xmlns="http://www.w3.org/2000/svg" viewBox="0 0 64 64"><defs><style>.cls-1{fill:#000355;}.cls-2{fill:#f9b233;}</style></defs><path class="cls-1" d="M43.8,49.9c-1.31.74-3.26.65-4.63,0-.94-.44-2.45-2.27-2.48-3.47-.15-6.35-.25-12.39.05-18.73.06-1.29,2.09-2.24,1.92-3.74,1.86-.49,3.25-.37,5.09-.19l2.56,3.98-.17,18.68c-.01,1.14-1.45,2.97-2.35,3.48Z"/><path class="cls-1" d="M26.53,49.98c-1.72.23-3.5.67-4.87-.08-5.19-2.84-1.74-23.68-2.56-22.18l2.08-3.8c1.85-.44,3.17-.42,5.08-.05l1.93,3.86.18,18.13c.01,1.46-1.21,2.58-1.85,4.12Z"/><path class="cls-1" d="M33.08,7.65c-.83-.4-1.78,0-2.55.4l-13.92,7.09c-.74.38-1,1.51-2.03,1.6-1.92-.06-3.73.32-5.9-.38L29.78,5.37c.66-.34,1.99-1.56,2.89-1.1l23.61,12.14c-2.48.8-4.56.23-6.82.17-.56-1.48-1.82-1.82-3.09-2.44l-13.29-6.5Z"/><rect class="cls-1" x="6.9" y="56.14" width="51.08" height="2.72"/><rect class="cls-1" x="9.59" y="18.71" width="45.93" height="2.98"/><rect class="cls-1" x="31.53" y="30.22" width="2.11" height="46.1" transform="translate(-20.72 85.82) rotate(-89.96)"/><path class="cls-1" d="M34.52,46.76c-.82.87-3.51,1.05-3.75.18l-.13-19.73c.87-.47,3.12-.65,3.73.15l.15,19.39Z"/><rect class="cls-1" x="48.36" y="26.84" width="3.88" height="20.63"/><path class="cls-1" d="M43.44,15.43h-21.18c-.4,0-.6-.62-.29-.77l10.49-5.11c3.86,2.03,7.42,3.45,10.98,5.88Z"/><path class="cls-1" d="M16.8,35.04l.03,10.24c0,.95-.5,1.74-1.04,2.04s-2.32.42-2.37-.29c-.24-3.04-.81-19.08.34-20.08-.38.33,2.75-.94,2.86.75.15,2.37.18,4.68.18,7.33Z"/><rect class="cls-1" x="28.65" y="23.62" width="7.6" height="1.17"/><rect class="cls-1" x="11.7" y="23.62" width="7.01" height="1.17"/><rect class="cls-1" x="46.76" y="23.62" width="7.01" height="1.17"/><rect class="cls-1" x="29.53" y="49.33" width="6.72" height=".58"/><rect class="cls-1" x="12" y="49.33" width="6.72" height=".58"/><rect class="cls-1" x="47.05" y="49.33" width="6.72" height=".58"/><path class="cls-2" d="M60.94,61.06l-56.71-.02c-.9,0-1.25-.46-1.32-.95s.14-.98.8-1.27c2.31-1.02.68-3.54,1.59-4.15.63-.42,1.33-.35,2.07-.72l.17-3.02c1.63-1.08,3.42-2.89,3.41-5.04l-.15-18.36c0-.98-1.7-2.22-1.96-3.4-.15-.69-1.58-.67-1.55-1.71s.51-2.55-.31-3.32c-.93-.88-3.77.38-4.16-1.26-.08-.34.04-.89.67-1.22L30.17,2.52c2.01-1.06,2.89-.71,4.79.29l26.8,14c.53.28.45.78.38,1.03-.47,1.71-3.33.36-4.21,1.23-.94.92.17,2.69-.51,3.71-1.36,2.04-3.23,4.11-3.21,6.66l.16,16.92c.01,1.35,1.17,2.99,2.03,3.77,3.02,2.74-.51,3.3,3.28,4.53,1.06.35-.87,3.41,1.53,4.12.6.18.95.41.97.78s-.02,1.49-1.24,1.49ZM33.08,7.65l13.29,6.5c1.27.62,2.53.96,3.09,2.44,2.26.06,4.34.62,6.82-.17l-23.61-12.14c-.89-.46-2.23.75-2.89,1.1l-21.1,11c2.17.69,3.98.32,5.9.38,1.03-.09,1.29-1.22,2.03-1.6l13.92-7.09c.77-.39,1.73-.8,2.55-.4ZM43.44,15.43c-3.56-2.44-7.12-3.86-10.98-5.88l-10.49,5.11c-.31.15-.11.76.29.76h21.18ZM55.52,18.69l-45.93.02v2.98s45.93-.02,45.93-.02v-2.98ZM11.7,23.62v1.17h7.01v-1.17h-7.01ZM26.53,49.98c.63-1.54,1.86-2.66,1.85-4.12l-.18-18.13-1.93-3.86c-1.91-.37-3.24-.4-5.08.05l-2.08,3.8c.82-1.5-2.63,19.34,2.56,22.18,1.37.75,3.16.31,4.87.08ZM28.65,23.62v1.17h7.6v-1.17h-7.6ZM43.8,49.9c.91-.51,2.34-2.34,2.35-3.48l.17-18.68-2.56-3.98c-1.84-.18-3.22-.3-5.09.19.16,1.5-1.86,2.45-1.92,3.74-.3,6.35-.2,12.39-.05,18.73.03,1.2,1.54,3.03,2.48,3.47,1.37.65,3.32.74,4.63,0ZM46.76,23.62v1.17h7.01v-1.17h-7.01ZM16.8,35.04c0-2.66-.03-4.97-.18-7.33-.11-1.69-3.24-.42-2.86-.75-1.15,1.01-.58,17.05-.34,20.08.06.7,1.82.61,2.37.29s1.04-1.1,1.04-2.04l-.03-10.24ZM34.52,46.76l-.15-19.39c-.6-.8-2.86-.63-3.73-.15l.13,19.73c.24.87,2.94.69,3.75-.18ZM52.25,26.84h-3.88v20.63h3.88v-20.63ZM18.72,49.33h-6.72v.58h6.72v-.58ZM36.25,49.33h-6.72v.58h6.72v-.58ZM53.77,49.33h-6.72v.58h6.72v-.58ZM9.53,52.21v2.11s46.1.03,46.1.03v-2.11s-46.1-.03-46.1-.03ZM57.98,56.13H6.9s0,2.73,0,2.73h51.08s0-2.73,0-2.73Z"/></svg>