<?xml version="1.0" encoding="UTF-8"?><svg id="Layer_1" xmlns="http://www.w3.org/2000/svg" viewBox="0 0 64 64"><defs><style>.cls-1{fill:#000355;}.cls-2{fill:#f9b233;}</style></defs><path class="cls-1" d="M11.57,50.99h28.92c.76.08.31,1.55,1.06,1.98.71-1.42,2.68-1.67,3.26-2.63.65-1.06-.82-1.5-1.49-1.5l-29.27.03c-.84,0-1.02-.81-1.05-1.44-.45-9.18,2.34-20.65,2.12-30.3,1.57-.68,3.43.08,3.76-1.09.17-.59-.05-1.04-.92-1.18-.59-.1-2.19.28-2.56-.39-2.51-4.52.72-7.22-1.4-9.77l34.48.1c-1.68,5.06-1.83,5.27-.96,9.23,2,9.1-.06,21.44-1.16,31.07-.48,4.23-1.17,11.37.96,14.91l-34.39.08c-3.53,0-3.78-5.23-2.77-7.96.17-.45.64-1.15,1.39-1.15ZM41.14,17.34c.79,0,1.17-.87,1.16-1.18s-.4-.99-.98-.99l-13.82-.02c-.72,0-1.2.56-1.2,1.01,0,.42.41,1.1,1.14,1.1l13.71.07ZM41.24,26.56c.89,0,1-.82.95-1.13-.06-.39-.49-.88-1.18-.88l-19.47.02c-.91,0-1.3.6-1.18,1.21.09.44.48.8,1.19.8l19.69-.02ZM40.59,35.14c.85,0,1.07-.8,1.02-1.1-.06-.35-.51-.91-1.19-.9l-19.46.05c-.72,0-1.28.31-1.39.74-.09.36.27,1.23.97,1.23l20.04-.02ZM39.75,43.41c.79,0,1.19-.86,1.01-1.32-.1-.27-.44-.67-1.04-.67h-19.8c-.84-.01-1.1.53-1.05,1.11.02.31.32.86,1.01.86l19.87.02Z"/><path class="cls-1" d="M49.46,11.49c1.06-.65,1.85-.47,2.86-.57.61-.45.61-1.65-.15-1.98s-1.6.02-2.55-.2c-.2-1.33.48-3.05,1.88-3.73,2.3-1.12,4.86,3.61,3.09,8.36-.49,1.31-1.9,1.5-2.92,1.41-1.4-.12-2.23-1.28-2.21-3.31Z"/><path class="cls-1" d="M48.3,56.26c1.1-.62,1.83-.48,2.72-.59.59-.72.46-1.73-.35-2.15-.93.23-1.7.34-2.55.15-.13-1-.17-1.76.49-2.65,1.1-.04,3.02-.49,3.75.6,1.79,2.68.7,9.47-2.42,8.17-.89-.96-1.53-1.85-1.64-3.53Z"/><path class="cls-1" d="M12.74,14.19c.1,1.14-2.03.59-2.45-.37-1.9-4.4-.05-9.04,1.22-8.83,1.61.26.79,4.11,1.23,9.21Z"/><path class="cls-2" d="M40.59,35.14l-20.04.02c-.7,0-1.06-.87-.97-1.23.11-.43.66-.74,1.39-.74l19.46-.05c.68,0,1.13.56,1.19.9.05.3-.17,1.1-1.02,1.1Z"/><path class="cls-2" d="M39.75,43.41l-19.87-.02c-.7,0-.99-.55-1.01-.86-.05-.58.21-1.12,1.05-1.12h19.8c.6.01.93.41,1.04.68.18.46-.22,1.32-1.01,1.32Z"/><path class="cls-2" d="M41.24,26.56l-19.69.02c-.7,0-1.1-.36-1.19-.8-.12-.61.27-1.21,1.18-1.21l19.47-.02c.69,0,1.12.49,1.18.88.05.31-.07,1.13-.95,1.13Z"/><path class="cls-2" d="M41.14,17.34l-13.71-.07c-.73,0-1.14-.68-1.14-1.1,0-.45.48-1.01,1.2-1.01l13.82.02c.58,0,.97.67.98.99s-.37,1.19-1.16,1.18Z"/><path class="cls-2" d="M54.72,59.08c-1,2.51-2.78,3.15-5.09,3.14l-37.23-.07c-1.53,0-2.76-.8-3.52-2.05-1.92-3.15-1.79-7.16.15-10.22,1.31-.53,1.98-1.61,1.88-3-.45-6.47,1.79-19.92,2.13-28.72.09-2.41-3.27-.09-4.88-3.75-1.78-4.03-.96-11.81,4.23-11.81h39.52c4.91,0,6.57,7.23,4.44,11.97-1.29,2.86-3.9,2.03-6.15,2.49.67,4.79.45,9.42-.1,14.29l-1.76,15.47c-.48,4.22,4.38-.2,6.25,4.18,1.05,2.45,1.18,5.44.13,8.07ZM12.74,14.19c-.44-5.1.38-8.95-1.23-9.21-1.28-.2-3.12,4.44-1.22,8.83.42.97,2.55,1.51,2.45.37ZM11.57,50.99c-.75,0-1.23.7-1.39,1.15-1.01,2.73-.76,7.97,2.77,7.96l34.39-.08c-2.13-3.54-1.44-10.68-.96-14.91,1.1-9.63,3.16-21.98,1.16-31.07-.87-3.96-.73-4.17.96-9.23l-34.48-.1c2.12,2.54-1.11,5.24,1.4,9.77.37.67,1.97.29,2.56.39.86.14,1.09.59.92,1.18-.33,1.17-2.2.41-3.76,1.09.22,9.65-2.57,21.13-2.12,30.3.03.62.21,1.44,1.05,1.44l29.27-.03c.67,0,2.14.44,1.49,1.5-.58.95-2.55,1.21-3.26,2.63-.75-.43-.3-1.9-1.06-1.99H11.57ZM49.46,11.49c-.02,2.03.81,3.18,2.21,3.31,1.02.09,2.43-.11,2.92-1.41,1.77-4.75-.79-9.48-3.09-8.36-1.39.68-2.07,2.39-1.88,3.73.95.22,1.76-.15,2.55.2s.75,1.53.15,1.98c-1.01.09-1.79-.09-2.86.57ZM48.3,56.26c.11,1.68.75,2.57,1.64,3.53,3.12,1.31,4.21-5.49,2.42-8.17-.73-1.09-2.65-.64-3.75-.6-.65.89-.61,1.65-.49,2.65.85.19,1.62.08,2.55-.15.81.42.93,1.43.35,2.15-.89.11-1.62-.03-2.72.59Z"/></svg>