<?xml version="1.0" encoding="UTF-8"?><svg id="Layer_1" xmlns="http://www.w3.org/2000/svg" viewBox="0 0 64 64"><defs><style>.cls-1{fill:#000355;}.cls-2{fill:#f9b233;}</style></defs><path class="cls-1" d="M50.73,6.79c-2.07-.69-3.74.94-3.91,2.92-.57,6.78,7.74,13.96,7.76,25.39,0,7.03-3.98,12.9-10.27,15.78-.77.35-1.18,1.58-2.23,1.58l-18.92.1c-1.04,0-1.58-1.12-2.37-1.48-9.4-4.33-12.42-12.67-9.72-22.5,1.15-4.18,3.2-7.84,5.06-11.74,1.28-2.7,3.17-8.38.26-9.89-.73-.38-1.85-.5-2.65.06-.35.25-.37.92-.24,1.15.12.22.56.24,1.08.22.78-.04,1.45.38,1.1,1.17-.47,1.08-1.64,1.2-2.45,1.03s-1.44-.9-1.72-1.98c-.35-1.34.25-2.99,1.58-3.69,2.47-1.29,5.45-.08,6.41,2.5,1.83,4.91-1.36,10.55-3.59,15.47-3.12,6.9-5.01,15.49.53,21.67,2.92,3.25,7.04,4.92,11.39,5.3,6.05.53,12.43.49,17.7-2.75,4.45-2.75,6.59-7.85,6.4-13.08-.39-10.7-9.73-19.41-6.36-26.8.89-1.94,2.6-3.04,4.73-2.77,1.57.2,2.59,1.16,2.9,2.26.39,1.4.15,2.85-1.18,3.64-.66.39-1.34.34-1.88.19-.43-.12-1.17-.65-.95-1.51.19-.79,1.3-.61,2.05-.85.55-.18.28-1.13-.5-1.39Z"/><path class="cls-1" d="M24.13,46.92c-6.98-1.36-10.32-8.66-9.01-15.4,1.59-8.12,4.66-10.57,6.52-17.78.13-.52.52-.82.67-1.05.22-.34,1.79-.1,1.79.32l.03,33.91Z"/><path class="cls-1" d="M48.05,25.83c1.37,3.26,2.02,6.46,1.81,9.8-.36,5.31-3.58,9.82-9.14,11.32l.05-33.59c0-.96,1.99-.99,2.29-.33.53,1.19.6,2.31,1.07,3.43l3.92,9.37Z"/><path class="cls-1" d="M47.13,57.96l-28.31.13c-3.19.01,2.25-3.72,3.74-3.73l20.16-.04c1.71.91,3.53,1.56,4.41,3.64Z"/><path class="cls-1" d="M31.51,35.91c0,3.54.76,12.29-1.01,12.14-.35-.03-.83-.26-.83-1.05V13.96c.01-.87.29-1.32.82-1.35.73-.04,1.04.45,1.04,1.31l-.02,21.98Z"/><path class="cls-1" d="M35.16,46.67c0,1.03-.55,1.32-.89,1.33-.51.01-.91-.22-.91-.99l.03-33.01c0-.57.15-.96.34-1.14.35-.33,1.31-.31,1.31.52l.12,33.27Z"/><rect class="cls-1" x="36.9" y="12.72" width="2.05" height="34.92"/><rect class="cls-1" x="26.08" y="12.67" width="1.93" height="35.17"/><path class="cls-2" d="M49.12,12.42c2.58,8.56,8.32,14.56,7.31,24.64-1.29,12.88-11.79,14.63-10.97,16.38.39.83,1.48.78,1.98,1.37.92,1.1,2.9,3.63,2.45,4.7-.13.31-.64.55-1.23.55l-32.52.03c-.62,0-1.15-.24-1.35-.55s-.2-.87.12-1.31l1.57-2.16c2.18-3,2.78-1.59,2.99-2.78.31-1.78-9.35-3.12-11.12-15.23-.87-5.97.95-11.72,3.53-17.07,1.4-2.9,2.96-5.45,3.87-8.61-1.27-.29-2.16.32-3.11,0-1.81-.61-2.95-2.23-3.2-3.85-.28-1.75.4-3.58,1.87-4.83,1.6-1.35,3.61-1.52,5.9-.92,4.13,1.09,4.54,6.7,5.09,7.66.69,1.2,2.17-1.22,2.81-1.27.8-.06,1.21,1.64,2.07,1.44.52-.12,1.27-1.56,1.69-1.55.5.02,1.14,1.46,1.65,1.52,1.34.15.94-2.53,2.14-2.23.76.19.57,1.78,1.08,2.14.97.69,1.43-1.01,2.22-1.21.55-.14,1.29,1.35,2.07,1.31.61-.03,1.2-1.34,1.71-1.41.6-.08,2.27,2.75,2.96,1.04.46-1.14.82-6.55,5.31-7.55,2.32-.52,4.47-.09,6.03,1.53,1.23,1.27,1.65,3.34,1.16,5.01-.74,2.53-2.79,3.7-6.08,3.21ZM50.73,6.79c.78.26,1.05,1.21.5,1.39-.75.24-1.85.06-2.05.85-.21.86.52,1.39.95,1.51.54.15,1.22.2,1.88-.19,1.34-.8,1.58-2.24,1.18-3.64-.31-1.1-1.33-2.06-2.9-2.26-2.14-.27-3.85.83-4.73,2.77-3.37,7.38,5.97,16.1,6.36,26.8.19,5.23-1.95,10.34-6.4,13.08-5.26,3.25-11.65,3.29-17.7,2.75-4.35-.38-8.47-2.05-11.39-5.3-5.54-6.18-3.65-14.77-.53-21.67,2.22-4.92,5.42-10.56,3.59-15.47-.96-2.58-3.94-3.79-6.41-2.5-1.33.69-1.92,2.35-1.58,3.69.28,1.09.89,1.81,1.72,1.98s1.97.05,2.45-1.03c.35-.79-.33-1.21-1.1-1.17-.52.02-.96,0-1.08-.22-.13-.24-.11-.9.24-1.15.8-.56,1.92-.44,2.65-.06,2.9,1.51,1.02,7.19-.26,9.89-1.86,3.9-3.91,7.56-5.06,11.74-2.7,9.82.32,18.16,9.72,22.5.79.36,1.32,1.49,2.37,1.48l18.92-.1c1.05,0,1.46-1.23,2.23-1.58,6.29-2.87,10.28-8.75,10.27-15.78-.01-11.43-8.33-18.61-7.76-25.39.17-1.98,1.83-3.61,3.91-2.92ZM24.13,46.92l-.03-33.91c0-.42-1.57-.66-1.79-.32-.15.23-.53.53-.67,1.05-1.86,7.21-4.93,9.66-6.52,17.78-1.32,6.74,2.02,14.04,9.01,15.4ZM28.01,12.67h-1.93v35.17h1.93V12.67ZM31.51,35.91l.02-21.98c0-.86-.31-1.35-1.04-1.31-.53.03-.81.47-.81,1.35v33.05c-.01.78.47,1.02.82,1.05,1.76.15,1-8.6,1.01-12.14ZM35.16,46.67l-.12-33.27c0-.83-.96-.85-1.31-.52-.19.17-.34.57-.34,1.14l-.03,33.01c0,.77.4,1,.91.99.34,0,.89-.3.89-1.33ZM38.95,12.72h-2.05v34.92h2.05V12.72ZM48.05,25.83l-3.92-9.37c-.47-1.12-.54-2.23-1.07-3.43-.3-.67-2.28-.64-2.29.33l-.05,33.59c5.56-1.5,8.78-6.01,9.14-11.32.2-3.33-.45-6.53-1.81-9.8ZM47.13,57.96c-.88-2.08-2.7-2.73-4.41-3.64l-20.16.04c-1.49,0-6.93,3.74-3.74,3.73l28.31-.13Z"/></svg>