<?xml version="1.0" encoding="UTF-8"?><svg id="Layer_1" xmlns="http://www.w3.org/2000/svg" viewBox="0 0 64 64"><defs><style>.cls-1{fill:#000355;}.cls-2{fill:#f9b233;}</style></defs><path class="cls-1" d="M59.96,44.03l-12.64.12c1.86-5.22,3.91-9.99,6.01-15.03.06-.14.4.11.59.16l6.03,14.75Z"/><path class="cls-1" d="M16.14,43.94c-4.1.43-8.08.21-12.47.13l6.14-15.42,6.33,15.3Z"/><path class="cls-1" d="M32.23,19.88c-.98-.24-1.98,1.88-3.27.94,1.85-1.53,4.94-6.84,2-8.12-.66,2.46.72,2.99-1.99,5.82-1.82-1.45-1.87.91-4.35,1.3-.13-2.69.74-7.03,3.66-8.12.24-.09,4.08,1.19,3.05-.16-.63-.82-1.96-.55-2.74-1.26-1.71-1.55.4-3.6-.43-5.82.66.12.99.83,1.59.59,4.4-1.8,5.01.86,7.21-.36-.21.8-.05,1.56.26,2.4,1.33,3.58-3.61,4.07-2.24,4.65.66.28,1.35-.08,2.16-.02,1,2.03.56,4.53-1.11,6.06l.17-3.46c.02-.35-.11-.63-.31-.72-1.33-.55-.11,5.58-2.91,6.81-.19.08-.55-.48-.74-.53ZM35.66,9.28c1.03-.2,1.13-1.57.81-2.16-.41-.75-1.27-.99-2.16-.8-.64.14-.98.85-1.07,1.87-.83,2.13-.97-1.43-1.92-1.79-.5-.19-1.04-.23-1.65,0-.88.32-1.05,1.21-.82,2.08.14.52.86,1.05,1.66.99.57-.05.96-.59,1.65-1.02.08.85-.45,1.37-.17,2.04.17.41.57.66.85.54,1.37-.58-.48-1.11,2.82-1.76Z"/><path class="cls-1" d="M32.68,48.06c-.02.87-1.6.75-1.93.18l.23-18.17c.55-.14,1-.07,1.6.07.17,5.9.29,11.6.11,17.92Z"/><path class="cls-1" d="M47.65,47.1c-2.6-2.62,10.13-.89,12.5-1.11-2.9,4.46-8.98,4.66-12.5,1.11Z"/><path class="cls-1" d="M16.17,45.99c-1.62,3.13-5.27,4.05-8.54,3.26-1.85-.45-3.44-1.36-4.17-3.39,4.25-.15,8.03-.22,12.71.13Z"/><path class="cls-1" d="M42.09,57.15l-20.23-.06c-.44,0-.47-.41-.42-.56.43-1.29,3.46-1,5.84-.99l6.28.03c2.41.01,4.69.11,7.11-.08.82-.06,1.7.33,1.42,1.66Z"/><path class="cls-1" d="M38.31,54.05l-12.8-.13c-.44-.17.54-1.09,1.22-1.09l9.84-.03c.69.17,1.56.09,1.74,1.25Z"/><path class="cls-1" d="M24.14,23.87c-.83-.65-.17-2.36.56-2.8.99-.59,1.97-.68,2.95-1.34-.24,1.9-1.3,3.11-3.51,4.14Z"/><path class="cls-1" d="M30.99,24.89c1.09,1.2,2.29-.68,4.01-.69-.58,1.48-1.94,1.99-3.04,2.08-1.46.12-2.58-.57-3.31-1.85.79-.47,1.69-.26,2.35.46Z"/><path class="cls-1" d="M34.52,51.19c-2.09.32-3.73.26-5.57-.06,1.59-1.64,4.11-1.73,5.57.06Z"/><circle class="cls-1" cx="53.72" cy="24.63" r=".83"/><circle class="cls-1" cx="9.8" cy="24.66" r=".83"/><path class="cls-2" d="M35.66,9.28c-3.3.65-1.45,1.18-2.82,1.76-.28.12-.68-.13-.85-.54-.28-.68.24-1.19.17-2.04-.69.43-1.08.98-1.65,1.02-.8.06-1.52-.47-1.66-.99-.23-.87-.06-1.76.82-2.08.61-.22,1.15-.18,1.65,0,.95.36,1.09,3.91,1.92,1.79.09-1.03.43-1.73,1.07-1.87.88-.19,1.75.05,2.16.8.32.59.22,1.95-.81,2.16Z"/><path class="cls-2" d="M43.44,58.75h-23.27c-.46,0-.83-.17-.99-.38-.61-.86.51-1.56,1.53-3.82.48-1.07,2.51.03,3.43-1.9.99-2.07,1.69.16,3.87-2.78.57-.77,1.15-1.37,1.16-2.49l.15-18.37c.02-1.97-1.9-4.01-3.78-3.47-1.73.5-3.3.28-5,.11-2.52-.26-4.94-.05-7.54-.08-.93-.01-2.29.97-1.87,2.02l6.51,15.87c.26.62.96.93,1,1.52s-.32,1.07-.65,1.64c-1.42,2.43-3.5,3.81-6.25,4.36-4.55.9-9.24-1.35-10.71-5.85-.2-.62.86-1.08,1.04-1.53l6.2-15.31c.13-.31.79-1.09.49-1.3-1.33-.94-1.82-2.36-1.07-3.56.79-1.28,2.67-1.52,3.75-.43.54.54,1.09.93,1.94.93h6.76c4.66.02,1.34-7.24,5.53-12.11.48-.55,1.21-.73,1.53-1.4-1.44-2.95.5-3.04-.56-6.59-.1-.32-.07-.55.02-.7.52-.87,2.16.62,3.2.39,1.91-.42,3.64-.42,5.56.02,1.08.25,2.38-.99,3.1-.59,1.05.58-.81,1.64.09,4.38.34,1.04,0,2.02-.19,3.04-.23,1.24,2.6,4.68-1.93,9.1-.74.72-1.48,1.17-2.08,2.17.88.89,2.09,2.19,3.58,2.2l12.11.09c1.9.01,2.67-2.82,5.07-1.15s-.62,3.89-.23,4.84l6.52,15.86c.21.5,1.06,1.07.89,1.61-1.26,3.87-4.7,6.05-8.71,6.06s-7.39-1.96-8.9-5.66c-.36-.89.7-1.36.98-2.02l6.4-15.56c.46-1.12-.39-2.35-1.59-2.34l-12.67.02c-1.35,0-2.89.92-3.38,2.16-.4.98-.28,2.06-.27,3.1l.03,16.09c0,1.36.23,2.17,1.14,3.15,2.36,2.53,3.7.55,4.44,2.98.46,1.51,2.77.62,3.13,1.38.45.96.54,1.92,1.39,2.69.28.25.25.81.17,1.03s-.4.6-1.05.6ZM32.23,19.88c.2.05.55.62.74.53,2.81-1.23,1.58-7.36,2.91-6.81.2.08.33.37.31.72l-.17,3.46c1.67-1.53,2.11-4.03,1.11-6.06-.81-.06-1.51.3-2.16.02-1.37-.58,3.57-1.07,2.24-4.65-.31-.83-.48-1.6-.26-2.4-2.21,1.22-2.81-1.45-7.21.36-.6.25-.93-.46-1.59-.59.83,2.22-1.28,4.28.43,5.82.78.71,2.11.43,2.74,1.26,1.03,1.35-2.82.07-3.05.16-2.92,1.09-3.79,5.42-3.66,8.12,2.48-.39,2.53-2.76,4.35-1.3,2.71-2.83,1.33-3.36,1.99-5.82,2.94,1.28-.15,6.59-2,8.12,1.29.94,2.3-1.18,3.27-.94ZM24.14,23.87c2.21-1.03,3.27-2.24,3.51-4.14-.98.66-1.96.75-2.95,1.34-.73.44-1.39,2.15-.56,2.8ZM10.63,24.66c0-.46-.37-.83-.83-.83s-.83.37-.83.83.37.83.83.83.83-.37.83-.83ZM54.55,24.63c0-.46-.37-.83-.83-.83s-.83.37-.83.83.37.83.83.83.83-.37.83-.83ZM30.99,24.89c-.66-.72-1.55-.94-2.35-.46.74,1.28,1.85,1.97,3.31,1.85,1.1-.09,2.46-.6,3.04-2.08-1.72.01-2.92,1.88-4.01.69ZM16.14,43.94l-6.33-15.3-6.14,15.42c4.39.09,8.37.31,12.47-.13ZM59.96,44.03l-6.03-14.75c-.19-.05-.54-.3-.59-.16-2.1,5.04-4.16,9.81-6.01,15.03l12.64-.12ZM32.68,48.06c.17-6.31.05-12.02-.11-17.92-.6-.15-1.04-.21-1.6-.07l-.23,18.17c.33.57,1.91.69,1.93-.18ZM16.17,45.99c-4.68-.35-8.46-.28-12.71-.13.72,2.03,2.32,2.94,4.17,3.39,3.27.79,6.92-.13,8.54-3.26ZM47.65,47.1c3.52,3.55,9.6,3.35,12.5-1.11-2.38.23-15.1-1.5-12.5,1.11ZM34.52,51.19c-1.45-1.79-3.98-1.7-5.57-.06,1.84.32,3.48.38,5.57.06ZM38.31,54.05c-.18-1.16-1.05-1.08-1.74-1.25l-9.84.03c-.68,0-1.66.92-1.22,1.09l12.8.13ZM42.09,57.15c.27-1.32-.6-1.72-1.42-1.66-2.43.19-4.71.09-7.11.08l-6.28-.03c-2.38-.01-5.41-.31-5.84.99-.05.15-.01.55.42.56l20.23.06Z"/></svg>