<?xml version="1.0" encoding="UTF-8"?><svg id="Layer_1" xmlns="http://www.w3.org/2000/svg" viewBox="0 0 64 64"><defs><style>.cls-1{fill:#000355;}.cls-2{fill:#f9b233;}</style></defs><path class="cls-1" d="M47.1,51.73h-28.48s-.03-30.64-.03-30.64c.11-4.62,2.41-8.55,6.27-10.92,4.1-2.45,8.91-2.87,13.4-1.13,5.18,1.76,8.49,6.23,8.82,11.72l.02,30.97ZM41,21.36c.65,0,.96-.76.89-1.1-.08-.44-.6-.73-1.28-.73h-15.35c-.87-.02-1.25.7-.98,1.23.13.25.39.61,1.02.61h15.69ZM40.36,25.46l-15.1.07c-.89,0-1.08.72-.92,1.25.08.28.35.62.96.61l16.18-.07c.55,0,.53-1.04.3-1.28-.17-.18-.64-.59-1.43-.59ZM40.86,33.52c.96,0,1.14-.81,1.07-1.14-.05-.23-.26-.74-.82-.74h-15.84c-.85,0-1.26.68-.99,1.19.15.27.39.66,1.02.66l15.56.03ZM40.95,39.43c.64,0,.97-.71.9-1.06-.08-.4-.58-.8-1.25-.8l-15.34.05c-.88,0-1.26.67-.96,1.25.13.25.36.59,1.01.59l15.64-.02ZM40.31,43.48l-15.06.02c-.92,0-1.21.91-.95,1.37.14.26.36.57,1.02.57l15.63.03c.7,0,1.06-.73.99-1.08-.09-.44-.68-.92-1.63-.91Z"/><path class="cls-1" d="M40.43,7.84c-3.41-1.72-7.1-1.97-10.82-1.45-7.16,1-12.86,6.73-12.89,14.15l-.12,32.94c0,.87-1.62.93-2.42.39l.13-33.86c.02-5.39,3.43-10.25,7.66-13.14,5.4-3.68,11.72-4.21,17.7-2.03,7.46,2.71,11.97,9.37,11.93,17.33l-.16,31.37c0,.85-2.31.88-2.31.05l.02-31.42c0-6.22-2.94-11.4-8.73-14.34Z"/><rect class="cls-1" x="30.78" y="35.77" width="4.32" height="44.92" transform="translate(-25.31 91.15) rotate(-89.98)"/><rect class="cls-1" x="18.92" y="53.48" width="28.28" height=".55"/><path class="cls-2" d="M41,21.36h-15.69c-.63,0-.9-.36-1.02-.61-.27-.53.11-1.24.98-1.24h15.35c.68.01,1.2.31,1.28.75.06.34-.24,1.1-.89,1.1Z"/><path class="cls-2" d="M40.36,25.46c.79,0,1.26.4,1.43.59.23.24.25,1.28-.3,1.28l-16.18.07c-.62,0-.88-.34-.96-.61-.16-.53.03-1.25.92-1.25l15.1-.07Z"/><path class="cls-2" d="M40.86,33.52l-15.56-.03c-.64,0-.88-.39-1.02-.66-.27-.5.15-1.19.99-1.19h15.84c.56,0,.77.5.82.73.07.33-.11,1.15-1.07,1.14Z"/><path class="cls-2" d="M40.31,43.48c.95,0,1.54.48,1.63.91.07.35-.29,1.08-.99,1.08l-15.63-.03c-.66,0-.88-.31-1.02-.57-.25-.47.04-1.37.95-1.37l15.06-.02Z"/><path class="cls-2" d="M40.95,39.43l-15.64.02c-.64,0-.88-.33-1.01-.59-.3-.58.08-1.25.96-1.25l15.34-.05c.66,0,1.17.4,1.25.8.07.35-.26,1.06-.9,1.06Z"/><path class="cls-2" d="M54.54,62.38l-44.64-.02c-.36,0-1.27-.13-1.3-.41-.3-2.53-.16-4.97-.01-7.5l3.61-.56.03-32.83c0-5.97,2.59-11.34,7.31-15.03C27.46-.15,38.72.07,46.44,6.41c4.72,3.87,7.06,9.14,7.08,15.23l.06,32.25,3.68.56c.04,2.52.39,4.99-.09,7.49-.11.58-1.67.43-2.61.43ZM40.43,7.84c5.79,2.93,8.74,8.11,8.73,14.34l-.02,31.42c0,.83,2.31.8,2.31-.05l.16-31.37c.04-7.97-4.47-14.62-11.93-17.33-5.98-2.18-12.3-1.65-17.7,2.03-4.23,2.88-7.64,7.75-7.66,13.14l-.13,33.86c.81.54,2.42.47,2.42-.39l.12-32.94c.03-7.42,5.73-13.15,12.89-14.15,3.73-.52,7.42-.27,10.82,1.45ZM47.1,51.73l-.02-30.97c-.33-5.49-3.64-9.96-8.82-11.72-4.48-1.74-9.29-1.32-13.4,1.13-3.86,2.37-6.16,6.3-6.27,10.92l.03,30.63h28.48ZM47.2,53.48h-28.28v.55h28.28v-.55ZM10.48,56.06v4.32s44.92.02,44.92.02v-4.32s-44.92-.02-44.92-.02Z"/></svg>