<?xml version="1.0" encoding="UTF-8"?><svg id="Layer_1" xmlns="http://www.w3.org/2000/svg" viewBox="0 0 64 64"><defs><style>.cls-1{fill:#000355;}.cls-2{fill:#f9b233;}</style></defs><path class="cls-1" d="M38.95,60.06c-.66-.09-.63-.95-.45-1.38,1.91-4.74.46-6.97,2.89-8.85.33-.25.14-.64-.03-.78-.9-.69-4.48,3.15-7,3.71-.25.07-5.01-4.81-4.79-2.51.12,1.2,8.49,6.3,5.88,9.6-1.2,1.52-7.54-.36-9.31-.91-1.36-.42-2.27.13-3,1.19-.33.35-1.09-.06-.75-.66.48-.85.41-1.8,1.2-2.48,4.19,2.53,4.61-.46,7.14,1.18.46.3,1.67.49,1.61-.2-.11-1.35-4.26-1.35-7.2-4.55-2.66-2.9,1.27-6.36,2.19-9.35.83-2.69-.89-5.37-.06-5.82.64-.35,1.56,5.02,5.17,4.25.4-.08.73-.4.67-.71-.15-.83-1.85.24-3.26-1.74-.73-1.02-1.26-2.04-2.08-2.99-1.79.15-8.5-1.79-9.06-3.13-.93-2.2-.35-4.6-.46-6.89-.04-.87-.98-1.5-1.13-2.51-.14-.92,1.02-.98.88-.04.94,1.9,1.18,3.74,1.71,5.58.35,1.23.99,2.25.82,3.64,1.77-.37,3-.34,4.32.55,1.04.71,3.51-1.55,5.16,1.38.12.22.74.79.96.7,1.58-.62,2.25,1.17,3.16,1.34,1.63.31,2.88-1.9,3.95-2.74.96-.76,2.3-.28,3.26-.8,1.24-.67,2.35-.79,3.95-.4-.64-.33,3.52-11.24,3.41-8.18-.03.77-.63,1.19-.79,1.87-.52,2.19-.24,4.77-1.51,6.7-.75,1.14-2.62,1.31-3.7,1.97-2.48,1.52-3.98-.49-4.15,1.26-.46,4.57-4.25,3.87-4.13,4.84.14,1.09,2.06-.29,1.74.67-1.97,5.94-5.83,3.33-6,5.36-.02.26.3.59.77.46l8.05-2.23c1.26-.35,2.67-.63,3.93-.08,3.13,1.37-3.39,10.57-2.77,12.06.32.78,2.63.77,2.52,1.82-1.27.16-2.25-.02-3.71-.22ZM34.04,44.68c-.56-.32-1.5.19-1.54.73s.92.49,1.23.38.93-.75.31-1.11Z"/><path class="cls-1" d="M32.28,20.09c.78,4.73-.04,3.85-2.55,6-1.06.91-2.63.79-3.93,1.09-.96-2.35-1.43-4.61-1.36-7.14l7.85.04Z"/><path class="cls-1" d="M22.95,17.44c-.16,1.85-4.59.93-6.2.83.17-3.54,1.47-6.67,3.82-9.18,1.32.69,2.49,1.23,3.61,2.18-.63,2.1-1.05,4.03-1.23,6.17Z"/><path class="cls-1" d="M42.1,18.24c-1.25.38-6.8.41-8.05.01.16-1.97-.8-5.44,1.03-5.52s3.57-.45,5.52-1.15c1.07,2.12,1.31,4.34,1.5,6.66Z"/><path class="cls-1" d="M49.58,18.34c-1.85,0-6.05.95-6.08-.93-.03-2.3-.65-4.31-1.25-6.42,1.19-.71,2.22-1.25,3.5-1.8,2.34,2.42,3.29,5.65,3.83,9.15Z"/><path class="cls-1" d="M32.5,17.22c0,.84-.41,1.31-1.07,1.31l-6.13-.03c-1.98,0-.07-4.84.1-6.18.23-.41.61-.65,1.07-.5,3.59,1.17,6.03.52,6.03,2.06v3.34Z"/><path class="cls-1" d="M40.76,26.75c-.83,1.86-2.46-2.19-4.78-2.55-.67-.11-1.27,0-1.95-.36-.13-1.31-.13-2.44.09-3.76l7.17-.03c1.85,0-.15,5.83-.54,6.69Z"/><path class="cls-1" d="M48.08,23.06c-1.88,1.54-1.92,3.97-2.95,6.01-1.04-.18-2.06-.72-3.02-1.45.76-2.2,1.41-4.2,1.48-6.56.06-1.89,5.53-.81,5.63-.75,1.26.78-.44,2.18-1.13,2.75Z"/><path class="cls-1" d="M24.01,27.37c.14.65-2.91,1.58-2.79,1.59-1.1-.13-.45-3.6-1.84-5.6-.45-.65-1.55-.34-2.18-.77-.75-.51-.45-1.67-.36-2.54,2.01-.1,3.79-.12,6,.06.12,2.55.66,4.79,1.17,7.25Z"/><path class="cls-1" d="M40.14,10.05c-2.05.93-3.93,1.23-6.1,1.25l-.08-7.82c3.06,1.21,4.92,3.63,6.17,6.58Z"/><path class="cls-1" d="M38.11,29.37c-.59,1.64-3.82-.88-5.52.92-.24.25-.86,1.01-1.16.87-.91-.51-.97-1.73-.94-2.67s.77-1.83,1.8-2.5c1.12-.73,2.88-.81,4.07-.11.92.54,2.28,2.08,1.76,3.51Z"/><path class="cls-1" d="M32.4,11.25c-2.22.13-4.06-.25-5.83-1.21.04-2.01,5.98-8.49,5.94-5.63l-.11,6.85Z"/><path class="cls-1" d="M36.9,33.57c-.1,1.07-1.44,1.09-2.21,1.35l.59.96c-1.28,1.05-3.75-2.47-2.67-3.47.44-.41.98-1.29,1.4-1.49,1.01-.42,2.66.3,3.9.3-.44.9-1.24.33-1.92.81.02.7.97.9.91,1.54Z"/><path class="cls-1" d="M25.51,8.66c-.45,1.78-2.85-.16-3.81-.8,2.04-1.85,4.17-3.35,7-3.87-1.22,1.53-2.44,2.68-3.19,4.67Z"/><path class="cls-1" d="M44.47,7.8c-.52.71-2.37,1.87-2.92,1.32-1.45-1.47-1.88-3.53-3.65-4.76.83-.88,5.56,2.03,6.56,3.44Z"/><path class="cls-1" d="M30.52,32.53c-.33.85-1.21.55-1.85.08-1.05-1.09-1.71-2.31-2.34-3.77.8-.57,1.78-.79,2.79-.65.3,1.53.25,2.81,1.4,4.34Z"/><path class="cls-1" d="M26.7,32.41c-.36,1.45-4.81-1-5.26-1.54.87-.68,2.3-1.8,3.32-1.3.95.47.92,1.93,1.94,2.84Z"/><path class="cls-1" d="M44.13,30.79c-1.4,1.22-2.91,2.06-4.81,2.15.7-1.18,1.08-2.6,2.17-3.29.6-.38,1.69.3,2.64,1.15Z"/><path class="cls-1" d="M37.25,57.99c-.56-1.27-.57-2.28-1.49-3.2-.85-1.19,1.32-1.91,2.68-2.51.04,2.05-.3,3.71-1.19,5.71Z"/><path class="cls-2" d="M34.04,44.68c.62.35,0,1-.31,1.11s-1.27.15-1.23-.38.98-1.04,1.54-.73Z"/><path class="cls-2" d="M48.49,61.96l-21.15.04-9.74-.09c-.69,0-.89-.59-.7-1.11.34-.93,2.87.04,3.89-.94.71-.68.82-3.26,2.03-3.75,1.89-.77,2.91,1.55,3.95.41-1.25-.93-2.54-1.65-3.31-3.04-1.02-1.86-.64-3.92.36-5.72,2.44-4.39,2.94-3.38,1.7-9.45-2.69-.84-5.22-1.36-7.61-2.76-1.64-.96-.68-6.76-1.31-8.47-.55-1.48-1.02-2.73-1.29-4.28C13.35,11.63,21.78,1.72,33.1,1.72c11.35,0,19.5,9.72,17.76,20.89-.3,1.9-.44,3.39-1.41,5.17-.7,1.28-.43,6.48-2.1,7.69-4.96,3.6-6.66.63-9.31,6.71l-1.43,3.28c2.19-.22,3.89-1.02,6.02-.73,1.86.26,2.86,2.3,2.49,4.16-1.04,5.22-4.96,8.99-2.56,9.67,1.07.3,1.77,1.06,2.73,1.55,1.23.62,3.51-.29,3.95.78.16.38-.1,1.06-.75,1.07ZM32.4,11.25l.11-6.85c.04-2.85-5.9,3.63-5.94,5.63,1.78.97,3.61,1.34,5.83,1.21ZM40.14,10.05c-1.25-2.95-3.12-5.36-6.17-6.58l.08,7.82c2.17-.02,4.05-.31,6.1-1.25ZM25.51,8.66c.76-1.99,1.98-3.14,3.19-4.67-2.83.52-4.96,2.03-7,3.87.95.64,3.36,2.58,3.81.8ZM44.47,7.8c-1-1.41-5.73-4.33-6.56-3.44,1.77,1.23,2.19,3.29,3.65,4.76.54.55,2.4-.61,2.92-1.32ZM22.95,17.44c.18-2.14.6-4.08,1.23-6.17-1.13-.95-2.29-1.49-3.61-2.18-2.35,2.52-3.65,5.65-3.82,9.18,1.61.1,6.05,1.02,6.2-.83ZM49.58,18.34c-.54-3.5-1.48-6.73-3.83-9.15-1.28.55-2.31,1.09-3.5,1.8.6,2.11,1.22,4.12,1.25,6.42.03,1.88,4.23.92,6.08.93ZM32.5,17.22v-3.34c0-1.54-2.44-.89-6.03-2.06-.46-.15-.84.09-1.07.5-.18,1.34-2.09,6.17-.1,6.18l6.13.03c.66,0,1.07-.47,1.07-1.31ZM42.1,18.24c-.19-2.32-.43-4.54-1.5-6.66-1.95.7-3.63,1.06-5.52,1.15s-.86,3.55-1.03,5.52c1.25.39,6.8.37,8.05-.01ZM24.01,27.37c-.51-2.46-1.05-4.7-1.17-7.25-2.21-.19-3.99-.16-6-.06-.1.87-.39,2.03.36,2.54.63.43,1.73.12,2.18.77,1.39,2,.74,5.47,1.84,5.6-.12-.01,2.93-.94,2.79-1.59ZM32.28,20.09l-7.85-.04c-.07,2.53.41,4.79,1.36,7.14,1.31-.3,2.87-.18,3.93-1.09,2.51-2.15,3.33-1.27,2.55-6ZM40.76,26.75c.39-.87,2.39-6.7.54-6.69l-7.17.03c-.22,1.32-.22,2.45-.09,3.76.67.35,1.27.25,1.95.36,2.32.36,3.95,4.41,4.78,2.55ZM48.08,23.06c.69-.57,2.39-1.97,1.13-2.75-.1-.06-5.57-1.14-5.63.75-.07,2.36-.72,4.37-1.48,6.56.96.73,1.98,1.27,3.02,1.45,1.03-2.04,1.07-4.47,2.95-6.01ZM38.95,60.06c1.46.19,2.45.38,3.71.22.12-1.05-2.19-1.04-2.52-1.82-.62-1.49,5.9-10.69,2.77-12.06-1.26-.55-2.67-.27-3.93.08l-8.05,2.23c-.47.13-.79-.2-.77-.46.17-2.04,4.03.58,6-5.36.32-.97-1.6.41-1.74-.67-.12-.97,3.66-.27,4.13-4.84.18-1.75,1.67.25,4.15-1.26,1.08-.66,2.96-.83,3.7-1.97,1.26-1.92.99-4.51,1.51-6.7.16-.68.76-1.1.79-1.87.11-3.06-4.04,7.85-3.41,8.18-1.59-.39-2.7-.27-3.95.4-.96.52-2.3.04-3.26.8-1.07.85-2.32,3.05-3.95,2.74-.92-.17-1.58-1.96-3.16-1.34-.23.09-.84-.48-.96-.7-1.65-2.93-4.12-.67-5.16-1.38-1.32-.89-2.54-.92-4.32-.55.18-1.39-.46-2.41-.82-3.64-.53-1.84-.77-3.69-1.71-5.58.14-.94-1.02-.89-.88.04.15,1.01,1.09,1.64,1.13,2.51.11,2.29-.47,4.68.46,6.89.56,1.34,7.27,3.27,9.06,3.13.82.95,1.35,1.97,2.08,2.99,1.41,1.98,3.11.9,3.26,1.74.06.31-.28.63-.67.71-3.61.77-4.53-4.6-5.17-4.25-.82.45.89,3.13.06,5.82-.92,2.99-4.85,6.45-2.19,9.35,2.94,3.2,7.08,3.21,7.2,4.55.06.69-1.15.5-1.61.2-2.53-1.65-2.95,1.34-7.14-1.18-.79.68-.71,1.64-1.2,2.48-.34.6.42,1.01.75.66.73-1.05,1.64-1.61,3-1.19,1.78.55,8.12,2.43,9.31.91,2.61-3.3-5.76-8.4-5.88-9.6-.23-2.31,4.54,2.58,4.79,2.51,2.52-.56,6.09-4.4,7-3.71.17.13.36.52.03.78-2.43,1.88-.99,4.11-2.89,8.85-.17.43-.21,1.3.45,1.38ZM38.11,29.37c.52-1.43-.84-2.97-1.76-3.51-1.19-.7-2.94-.62-4.07.11-1.02.67-1.76,1.55-1.8,2.5s.03,2.16.94,2.67c.3.14.92-.62,1.16-.87,1.71-1.79,4.93.72,5.52-.92ZM30.52,32.53c-1.15-1.52-1.1-2.8-1.4-4.34-1.01-.15-2,.07-2.79.65.63,1.46,1.29,2.67,2.34,3.77.64.47,1.52.78,1.85-.08ZM26.7,32.41c-1.02-.91-1-2.37-1.94-2.84-1.02-.5-2.45.62-3.32,1.3.45.55,4.91,2.99,5.26,1.54ZM44.13,30.79c-.95-.85-2.04-1.53-2.64-1.15-1.08.69-1.46,2.12-2.17,3.29,1.9-.09,3.41-.93,4.81-2.15ZM36.9,33.57c.06-.64-.88-.84-.91-1.54.68-.47,1.48.1,1.92-.81-1.25,0-2.9-.72-3.9-.3-.41.2-.96,1.09-1.4,1.49-1.08,1,1.39,4.52,2.67,3.47l-.59-.96c.77-.27,2.11-.28,2.21-1.35ZM37.25,57.99c.89-2,1.22-3.66,1.19-5.71-1.36.6-3.53,1.32-2.68,2.51.92.93.93,1.93,1.49,3.2Z"/></svg>