<?xml version="1.0" encoding="UTF-8"?><svg id="Layer_1" xmlns="http://www.w3.org/2000/svg" viewBox="0 0 64 64"><defs><style>.cls-1{fill:#000355;}.cls-2{fill:#f9b233;}</style></defs><path class="cls-1" d="M30.81,43.26c.02,2.16-4.34,1.39-9.97,2.79-2.33.58-3.38-10.77-2.95-12.12l12.82.09.1,9.24Z"/><path class="cls-1" d="M53.28,49.71c-2.9-1.62-7.42-1.84-6.7-4.03,1.27-3.88,1.66-7.6,1.92-11.75l10.5.11c-.1,5.66-2.12,10.85-5.72,15.68Z"/><path class="cls-1" d="M15.59,35.34c.35,5.67,2.57,11.41,1.17,11.83-2.11.64-3.91,1.4-6.01,2.41-2.62-1.7-8.41-15.71-4.41-15.71h7.66c.95,0,1.52.55,1.58,1.47Z"/><path class="cls-1" d="M44.11,46.26c-3.55-.93-6.45-1.45-9.81-1.56-2.45-.08-1.08-8.24-1.19-10.81l12.39-.03c2.16,0-.66,10.4-1.39,12.4Z"/><path class="cls-1" d="M45.19,31.7l-10.87.09c-.82,0-1.4-.53-1.37-1.35.15-3.24-.22-6.15.15-9.45,3.83-.16,7.16-.63,10.85-1.71.59.82,4.01,12.4,1.23,12.42Z"/><path class="cls-1" d="M30.79,31.53c-3.98.36-7.63.08-11.62.23-2.99.11-.46-8.69.18-11.16.28-1.09,1.7-.96,2.61-.71,3,.81,5.77.79,8.87,1.1l-.03,10.54Z"/><path class="cls-1" d="M17.31,20.07c-2.46,8.06-.63,11.77-3.87,11.7l-8.5-.18c.08-5.79,2.13-11.1,5.69-15.7,2.21.67,4.07,1.82,6.29,2.7.53.21.52,1,.38,1.47Z"/><path class="cls-1" d="M48.48,31.73c-.17-4.39-.74-8.06-1.88-11.98-.17-.6.2-1.29.77-1.49,4.26-1.47,5.58-3.16,7-.8,2.63,4.35,4.6,8.88,4.68,14.11l-10.57.16Z"/><path class="cls-1" d="M30.82,18.63c-3.43.3-6.36-.29-10.12-1.27,1.78-4.81,4.78-9.02,9.9-11.67l.22,12.94Z"/><path class="cls-1" d="M30.81,59.41c-3.64.23-9.14-7.84-9.97-11.09,3.15-1.06,6.34-1.6,9.87-1.48l.1,12.56Z"/><path class="cls-1" d="M43.19,17.14c-3.08,1.32-6.41,1.49-10.08,1.62-.13-3.44-.51-9.9.28-12.83,2.83,1.19,5.13,3.17,6.83,5.82,1.02,1.66,1.86,2.87,2.97,5.39Z"/><path class="cls-1" d="M43.02,48.24c-1.5,4.93-5.01,8.87-9.76,11.62-.56-4.56-.24-8.36-.29-12.86,3.26-.39,6.09.1,10.05,1.24Z"/><path class="cls-1" d="M24.91,58.82c-5.07-.9-9.33-3.78-12.69-7.48,2.44-1.02,6.01-3.38,6.79-1.44,1.36,3.36,3.52,5.8,5.9,8.93Z"/><path class="cls-1" d="M24.55,6.97c-6.28,6.94-3.99,10.79-8.79,8.82-1.04-.43-2.41-.61-3.4-1.87,3.62-3.34,7.2-6.21,12.18-6.95Z"/><path class="cls-1" d="M51.49,14.06c-1.66.79-5.88,3.54-6.64,1.71-1.25-3.02-2.93-5.59-5.02-7.94-.22-.25-.18-1,.31-.95,4.4,1.49,8.06,3.82,11.35,7.19Z"/><path class="cls-1" d="M51.43,51.58c-.92,1.61-10.13,8.21-11.85,6.53,2.42-2.73,4.18-5.68,5.81-9.11,2.21.58,4.09,1.22,6.03,2.58Z"/><path class="cls-2" d="M61.31,32.66c0,16.22-13.15,29.37-29.37,29.37S2.57,48.88,2.57,32.66,15.72,3.29,31.94,3.29s29.37,13.15,29.37,29.37ZM30.82,18.48l-.22-12.94c-5.12,2.65-8.11,6.86-9.9,11.67,3.76.98,6.68,1.57,10.12,1.27ZM43.19,17c-1.11-2.52-1.95-3.74-2.97-5.39-1.7-2.65-4.01-4.63-6.83-5.82-.79,2.93-.41,9.39-.28,12.83,3.67-.13,7-.3,10.08-1.62ZM24.55,6.82c-4.99.75-8.57,3.61-12.18,6.95.99,1.25,2.36,1.44,3.4,1.87,4.79,1.97,2.51-1.89,8.79-8.82ZM51.49,13.92c-3.28-3.37-6.95-5.7-11.35-7.19-.49-.05-.53.7-.31.95,2.08,2.35,3.77,4.92,5.02,7.94.76,1.83,4.98-.92,6.64-1.71ZM17.31,19.93c.14-.47.15-1.26-.38-1.47-2.22-.88-4.08-2.03-6.29-2.7-3.56,4.6-5.62,9.91-5.69,15.7l8.5.18c3.23.07,1.4-3.64,3.87-11.7ZM48.48,31.58l10.57-.16c-.07-5.23-2.05-9.75-4.68-14.11-1.42-2.36-2.75-.66-7,.8-.56.19-.94.89-.77,1.49,1.14,3.92,1.71,7.59,1.88,11.98ZM45.19,31.56c2.78-.02-.65-11.6-1.23-12.42-3.69,1.08-7.02,1.55-10.85,1.71-.37,3.3,0,6.21-.15,9.45-.04.82.55,1.36,1.37,1.35l10.87-.09ZM30.79,31.39l.03-10.54c-3.1-.31-5.86-.29-8.87-1.1-.9-.24-2.32-.38-2.61.71-.64,2.47-3.17,11.27-.18,11.16,3.99-.15,7.63.13,11.62-.23ZM15.59,35.19c-.06-.92-.62-1.46-1.58-1.46h-7.66c-4,0,1.79,14,4.41,15.7,2.09-1.02,3.89-1.77,6.01-2.41,1.39-.42-.82-6.16-1.17-11.83ZM30.81,43.11l-.1-9.24-12.82-.09c-.43,1.35.63,12.7,2.95,12.12,5.63-1.4,9.99-.62,9.97-2.79ZM44.11,46.11c.73-2,3.55-12.41,1.39-12.4l-12.39.03c.11,2.57-1.26,10.72,1.19,10.81,3.36.11,6.26.64,9.81,1.56ZM53.28,49.56c3.61-4.83,5.63-10.02,5.72-15.68l-10.5-.11c-.26,4.15-.65,7.87-1.92,11.75-.72,2.19,3.8,2.41,6.7,4.03ZM30.81,59.26l-.1-12.56c-3.53-.12-6.72.41-9.87,1.48.84,3.25,6.34,11.32,9.97,11.09ZM43.02,48.09c-3.96-1.14-6.79-1.63-10.05-1.24.04,4.5-.27,8.3.29,12.86,4.74-2.75,8.26-6.69,9.76-11.62ZM24.91,58.68c-2.38-3.13-4.53-5.57-5.9-8.93-.78-1.93-4.35.42-6.79,1.44,3.36,3.7,7.61,6.59,12.69,7.48ZM51.43,51.43c-1.94-1.37-3.82-2-6.03-2.58-1.64,3.44-3.39,6.38-5.81,9.11,1.71,1.68,10.92-4.92,11.85-6.53Z"/></svg>