<?xml version="1.0" encoding="UTF-8"?><svg id="Layer_1" xmlns="http://www.w3.org/2000/svg" viewBox="0 0 64 64"><defs><style>.cls-1{fill:#000355;}.cls-2{fill:#f9b233;}</style></defs><path class="cls-1" d="M37.1,52.67c-1.96.92-.26,4.78-1.39,6.71-2.31.4-4.68.31-7.11.11l-1-7.09c-2.48-.22-4.47-2.02-6.81-2.36-2.01-.29-5.06,4.69-6.37,3.71-1.8-1.34-3.27-2.95-4.76-4.51l4.18-5.44c.64-.83-2.44-7.04-2.59-7.21-1.15-1.29-6.86.05-6.99-1.9-.15-2.22-.1-4.26.07-6.52l6.9-.86c.46-.99,3.1-6.65,2.66-7.23l-4.2-5.51c1.69-1.76,3.24-3.47,5.09-4.92,2.02.85,4.72,4.72,6.42,3.98,2.14-.94,4.17-1.83,6.42-2.53l.67-6.33c.08-.75.72-1.18,1.48-1.17l5.35.08c1.79.03.44,6.46,1.81,7.12l5.61,2.71c.68.33,1.69.17,2.17-.23l3.98-3.31c1.3-1.08,4.67,3.65,5.98,4.87-.76,1.75-5.83,5.18-4.19,6.92,1.29,1.37,1.14,4.11,2.46,5.2,1.83,1.52,4.91.27,7.11,1.31.38,1.91.05,3.85.16,5.85.15,2.72-4.97,1.19-7.39,2.23l-1.82,4.5c-1.5,3.71-1.19,2.05,2.96,7.29,1.25,1.58-1.24,2.59-3.31,5.02-.71.83-1.72.89-2.54.17l-3.54-3.09c-.57-.5-1.54-.39-2.29-.04l-5.21,2.45ZM45.97,31.75c0-7.65-6.2-13.86-13.86-13.86s-13.86,6.2-13.86,13.86,6.2,13.86,13.86,13.86,13.86-6.2,13.86-13.86Z"/><path class="cls-2" d="M36.05,61.86h-9.15c-2.2-3.89.83-7.45-3.39-8.51-1.09-.27-2.31-1.34-3.46-.58-2.8,1.87-4.55,5.33-6.75,3.19l-5.45-5.3c-2.34-2.27,2.38-4.73,3.32-7.35.44-1.21-.63-4.17-1.76-4.76-2.61-1.37-7.52.47-7.5-2.67l.04-8.35c.02-2.97,4.95-1.02,7.52-2.46,1.03-.58,2.14-3.35,1.79-4.49-.78-2.57-5.71-5.14-3.48-7.33l5.71-5.63c2.07-2.04,3.62,1.48,6.43,3.17,1.28.77,2.6-.26,3.77-.5,4.11-.87,1-7.59,3.35-8.44,2.97-1.07,6.29-.08,9.33-.43s1.23,5.21,2.56,7.58c.68,1.21,3.64,2.29,4.94,1.85,2.67-.91,4.56-5.46,6.97-3.11l5.73,5.59c2.31,2.25-2.12,4.23-3.35,6.86-.6,1.29.38,4.21,1.7,4.91,2.6,1.37,7.46-.44,7.48,2.5l.06,8.33c0,.84-.26,1.66-1.13,1.75l-6.87.78-1.87,4.52c1.1,2.63,6.21,5.44,3.89,7.67l-5.77,5.52c-2.15,2.06-4.47-2.52-6.95-3.4-1.4-.49-4.33.82-5.03,2.11-1.53,2.82.78,7.02-2.68,7.02ZM37.1,52.67l5.21-2.45c.75-.35,1.71-.46,2.29.04l3.54,3.09c.82.72,1.84.66,2.54-.17,2.08-2.44,4.56-3.45,3.31-5.02-4.15-5.24-4.47-3.57-2.96-7.29l1.82-4.5c2.42-1.05,7.54.48,7.39-2.23-.11-2,.22-3.94-.16-5.85-2.19-1.05-5.27.21-7.11-1.31-1.32-1.09-1.17-3.83-2.46-5.2-1.64-1.74,3.43-5.17,4.19-6.92-1.31-1.22-4.68-5.95-5.98-4.87l-3.98,3.31c-.48.4-1.49.56-2.17.23l-5.61-2.71c-1.37-.66-.02-7.1-1.81-7.12l-5.35-.08c-.76-.01-1.41.42-1.48,1.17l-.67,6.33c-2.25.7-4.28,1.59-6.42,2.53-1.7.74-4.41-3.13-6.42-3.98-1.85,1.46-3.4,3.16-5.09,4.92l4.2,5.51c.44.58-2.21,6.24-2.66,7.23l-6.9.86c-.16,2.26-.21,4.29-.07,6.52.13,1.95,5.84.61,6.99,1.9.15.17,3.23,6.38,2.59,7.21l-4.18,5.44c1.49,1.56,2.96,3.17,4.76,4.51,1.31.98,4.36-4,6.37-3.71,2.34.34,4.34,2.14,6.81,2.36l1,7.09c2.43.2,4.8.29,7.11-.11,1.12-1.93-.58-5.79,1.39-6.71Z"/><path class="cls-2" d="M45.97,31.75c0,7.65-6.2,13.86-13.86,13.86s-13.86-6.2-13.86-13.86,6.2-13.86,13.86-13.86,13.86,6.2,13.86,13.86ZM43.77,31.77c0-6.41-5.2-11.61-11.61-11.61s-11.61,5.2-11.61,11.61,5.2,11.61,11.61,11.61,11.61-5.2,11.61-11.61Z"/><circle class="cls-1" cx="32.16" cy="31.77" r="11.61"/></svg>