<?xml version="1.0" encoding="UTF-8"?><svg id="Layer_1" xmlns="http://www.w3.org/2000/svg" viewBox="0 0 64 64"><defs><style>.cls-1{fill:#000355;}.cls-2{fill:#f9b233;}</style></defs><path class="cls-1" d="M29.37,35.72c.94-1.28.95-2.81,1.29-4.38l1.69-7.71c.98,1.3.6,2.74.73,4.25.54,6.19-1.73,12.17-6.57,16s-11.72,0-15.19-4.1c-5.42-6.24-6.88-16.63-8.29-24.59,7.58-.31,14.89-1.07,21.93-3.57l5.22-1.85,1.87,9.48c.3,1.52-.57,2.31-1.02,3.47-1.16,3.05-1.2,6.23-1.96,9.36-.85-.29-1.26-1.21-1.89-.8-7.66,4.97-12.16,1.41-13.5,2.98-.93,1.08,2.6,6.79,8.16,6.07,3.28-.42,5.82-2.74,6.63-6.45.76.44.42,1.19.89,1.82ZM29.2,22.21c-.51-2.39-3.25-3.28-5.38-2.59-1.67.54-3.58,2.72-2.59,4.69.64,1.28,1.67-2.42,3.54-2.91,1.72-.45,4.95,3.22,4.43.82ZM15.83,25.51c.23-.01.85-.25.72-.68-.6-2.05-2.76-2.96-4.57-2.75-3.01.36-4.83,4.55-3.24,4.81s.99-2.49,3.24-2.94c1.87-.37,2.99,1.61,3.85,1.56Z"/><path class="cls-1" d="M30.71,42.43c2.35-3,3.19-5.96,4.13-9.27.42-1.48,3.31-1.73,4.31-.97s1.12,2.39,1.71,2.59c.28.09.93.05,1-.45.17-1.24-.22-2.59-1.21-3.39-1.64-1.33-3.63-1.22-5.68-.51.09-3.44-.22-6.33-.69-9.95,10.1,3.86,15.82,4.71,26.24,5.89-2.05,8.17-3.69,18.44-9.96,24.2-2.55,2.62-5.78,4.39-9.47,4.76-5.36.54-10.09-7.39-10.36-12.9ZM53.56,37.89c.26-.03.85-.23.88-.74.11-1.85-1.37-3.54-2.67-3.98-1.8-.61-4.01-.22-4.97,1.29-.37.59-.34,1.08-.05,1.29,1.15.81,2.08-1.5,4.19-.87,1.81.54,1.61,3.14,2.63,3.01ZM47.58,49.84c1.2-.56.33-6.96-6.49-7.68-2.97-.32-5.81,1.05-6.51,4.07-.11.49.19,1.05.45,1.12.19.05.59.22.95.18,7.36-.92,9.61,3.24,11.59,2.31Z"/><path class="cls-1" d="M25.59,34.09c2.13-1.08-.2,4.24-4.21,4.52-2.03.14-4.15-.59-5.33-2.57,3.42-.13,6.51-.42,9.53-1.95Z"/><path class="cls-2" d="M29.2,22.21c.51,2.4-2.71-1.27-4.43-.82-1.87.49-2.9,4.19-3.54,2.91-.99-1.97.92-4.15,2.59-4.69,2.13-.68,4.87.2,5.38,2.59Z"/><path class="cls-2" d="M15.83,25.51c-.86.05-1.98-1.93-3.85-1.56-2.25.45-1.68,3.19-3.24,2.94s.23-4.45,3.24-4.81c1.82-.22,3.98.7,4.57,2.75.13.43-.49.66-.72.68Z"/><path class="cls-2" d="M47.58,49.84c-1.99.93-4.23-3.23-11.59-2.31-.37.05-.76-.12-.95-.18-.26-.07-.56-.63-.45-1.12.7-3.03,3.54-4.39,6.51-4.07,6.81.72,7.68,7.12,6.49,7.68ZM45.89,47.66c-1.17-3.85-5.4-4.31-8.25-3.03-.47.49-.83.74-.28,1.34,3.16-.53,5.37,1.09,8.53,1.69Z"/><path class="cls-2" d="M53.56,37.89c-1.02.13-.81-2.47-2.63-3.01-2.11-.62-3.04,1.68-4.19.87-.29-.2-.33-.7.05-1.29.96-1.52,3.18-1.9,4.97-1.29,1.31.44,2.78,2.12,2.67,3.98-.03.51-.61.71-.88.74Z"/><path class="cls-2" d="M50.9,52.93c-4.86,4.12-11.15,6.34-16.56,1.55-2.95-2.61-4.41-6.13-5.34-10.04-5.84,5.28-12.52,2.67-17.47-1.77-3.82-3.67-6.14-8.19-7.5-13.32-.65-2.46-3.5-14.57-2.95-15.76.09-.18.42-.29.87-.29,9.95-.14,19.57-2.01,28.68-5.87.48-.2,1.1.13,1.2.66.54,2.68,1.21,5.26,1.54,8.01.16,1.33.5,2.11,1.77,2.62,8.42,3.37,17.19,5.07,26.29,5.68.49.03,1.27.34,1.13,1.01-1.28,6.06-2.68,11.87-4.82,17.68-1.42,3.85-3.74,7.22-6.84,9.85ZM29.37,35.72c-.47-.63-.13-1.38-.89-1.82-.81,3.7-3.35,6.02-6.63,6.45-5.56.72-9.09-4.99-8.16-6.07,1.34-1.56,5.85,2,13.5-2.98.63-.41,1.04.51,1.89.8.76-3.13.8-6.32,1.96-9.36.44-1.17,1.32-1.96,1.02-3.47l-1.87-9.48-5.22,1.85c-7.04,2.5-14.36,3.26-21.93,3.57,1.41,7.96,2.87,18.34,8.29,24.59,3.46,4.1,10.38,7.91,15.19,4.1s7.1-9.81,6.57-16c-.13-1.51.25-2.95-.73-4.25l-1.69,7.71c-.34,1.57-.35,3.11-1.29,4.38ZM30.71,42.43c.27,5.51,5,13.44,10.36,12.9,3.7-.37,6.92-2.14,9.47-4.76,6.27-5.76,7.91-16.03,9.96-24.2-10.42-1.18-16.14-2.03-26.24-5.89.48,3.62.79,6.51.69,9.95,2.05-.71,4.04-.82,5.68.51.99.8,1.38,2.15,1.21,3.39-.07.51-.71.55-1,.45-.59-.19-.67-1.8-1.71-2.59s-3.89-.51-4.31.97c-.94,3.31-1.78,6.27-4.13,9.27ZM25.59,34.09c-3.02,1.53-6.11,1.82-9.53,1.95,1.18,1.97,3.29,2.71,5.33,2.57,4.01-.28,6.34-5.6,4.21-4.52Z"/><path class="cls-1" d="M45.89,47.66c-3.16-.59-5.37-2.22-8.53-1.69-.55-.61-.19-.85.28-1.34,2.86-1.27,7.08-.82,8.25,3.03Z"/></svg>