<?xml version="1.0" encoding="UTF-8"?><svg id="Layer_1" xmlns="http://www.w3.org/2000/svg" viewBox="0 0 64 64"><defs><style>.cls-1{fill:#000355;}.cls-2{fill:#f9b233;}</style></defs><path class="cls-1" d="M34.8,17.8c-1.55-1.83-1.74-3.6-2.19-3.73-1.18-.34-1.08,1.78-2.49,3.25-1.53,1.59-1.86,3.53-1.57,5.76-4-2.27-3.35-6.69-1.15-9.89.72.76.64,1.57,1.66,1.65.45-4.23,2.19-3.2,3.17-8.4,4.92,3.86.82,11.34,5.03,6.38,2.24,3.2,2.34,7.74-1.3,9.89.19-1.9,0-3.52-1.17-4.91Z"/><path class="cls-1" d="M33.98,48.99c-.09,1.04-2.94,1.14-3.18.4-.38-1.72-1.57-14.56-.54-15.22,1.27-.82,3.07-.17,4.8-.15-.15,4.97-.6,9.58-1.08,14.98Z"/><path class="cls-1" d="M38.88,27.42l-12.76.08c-.57,0-.83-.59-.87-.89-.04-.27-.08-1,.43-1l13.51.09c.45,0,.29,1.71-.31,1.72Z"/><path class="cls-1" d="M35.95,32.1c-2.37.04-4.65.47-6.93-.1-1.05-.26-1.17-1.98-1.39-2.86l9.16-.07c-.02.99-.37,1.66-.84,3.03Z"/><path class="cls-1" d="M34.57,20.98c.01,1.61-.71,2.64-1.87,2.87s-2.54-.72-2.65-2.24c-.12-1.77,1.21-3.23,2.32-4.38,1.08,1.14,1.68,2.22,2.2,3.74Z"/><path class="cls-1" d="M33.46,54.36c.29,1.21.09,2.96-1.1,2.93-1.41-.04-1.8-2.24-1.08-3.15.94-.07,1.52-.27,2.18.22Z"/><rect class="cls-1" x="30.01" y="51.6" width="4.42" height=".98"/><path class="cls-1" d="M57.95,48.22c-.97,1.88-2.55,2.78-4.52,2.84.68-1.85,2.48-2.78,4.52-2.84Z"/><path class="cls-1" d="M58.62,33.43c-.06-1.91.74-3.44,2.09-4.85.61,1.82-.32,3.59-2.09,4.85Z"/><path class="cls-1" d="M51.68,56.12c-1.43,1.03-2.96,1.9-4.91.89,1.56-1.26,3.08-1.29,4.91-.89Z"/><path class="cls-1" d="M60.89,38.24c.27,2.28-3.63,5.08-3.02,3.51s1.53-2.79,3.02-3.51Z"/><path class="cls-1" d="M55.2,42.24c-1.17-1.24-1.69-2.74-1.34-4.41,1.14,1.11,1.94,2.62,1.34,4.41Z"/><path class="cls-1" d="M46.46,51.11c2-.99-.93,4.16-1.05,4.49-.72-.82.86-4.39,1.05-4.49Z"/><path class="cls-1" d="M52.61,18.73c-1.62-.19-2.25-1.76-2.31-3.3,1,.82,2.08,1.29,2.31,3.3Z"/><path class="cls-1" d="M51.16,45.2c1.44.09.98,3.84.68,3.96-1.28.5-.58-2.54-.68-3.96Z"/><path class="cls-1" d="M57.18,25.15c-.5-1.76-.19-3.18.61-4.5.5,1.76.19,3.18-.61,4.5Z"/><rect class="cls-1" x="54.69" y="30.2" width="1.1" height="3.46" transform="translate(-7.32 44.46) rotate(-41.35)"/><path class="cls-1" d="M6.84,48.19c.67-.51,5.14,2.32,4.11,2.92-1.71-.07-3.56-1.05-4.11-2.92Z"/><path class="cls-1" d="M6.45,42.29c-1.63-.41-2.56-1.85-3.09-3.49.05-.42.55-.42.83-.21.87,1.1,2.1,1.69,2.26,3.7Z"/><path class="cls-1" d="M19.19,55.09c-1.3-.71-1.65-2.4-1.36-3.98,1.05.89,1.92,1.85,1.36,3.98Z"/><path class="cls-1" d="M5.41,32.99c-1.52-.7-2.31-2.45-1.68-4.02.9,1.15,1.66,2.04,1.68,4.02Z"/><path class="cls-1" d="M17.8,56.8c-1.43.24-4.29.69-4.48-.72,1.73-.21,3.09.07,4.48.72Z"/><path class="cls-1" d="M12.23,23.09c1.57-.48-1.3,2.7-2.95,2.16.66-1.2,1.68-1.77,2.95-2.16Z"/><path class="cls-1" d="M7.22,25.11c-1.25-1.08-1.2-2.97-.49-4.45.3,1.48.96,2.49.49,4.45Z"/><path class="cls-1" d="M13.31,49.57c-1.8.03-.47-3.66-.18-4.4.43,1.48.11,2.48.18,4.4Z"/><path class="cls-1" d="M10.44,30.65c-.86,1.27-1.34,2.26-2.54,2.83.1-1.47,1.25-2.02,1.84-3.16.37-.4.67-.32.69.33Z"/><path class="cls-1" d="M13.87,15.93c-.86,1.27-1.34,2.26-2.54,2.83.1-1.47,1.25-2.02,1.84-3.16.37-.4.67-.32.69.33Z"/><path class="cls-1" d="M10.13,38.32c.66.43-.3,3.38-.48,3.49s-.92-.05-.75-.48l1.23-3.01Z"/><path class="cls-2" d="M36.67,53.04c-2.32,1.86-.54,6.13-4.44,6.11-3.17-.02-2.26-3.12-3.91-5.79-.7-1.13.39-2.1.43-3.09.06-1.57-.69-14.86-.91-15.73-.38-1.42-1.31-2.62-1.51-4.14-.15-1.16-1.67-1.14-2.18-1.87-.67-.95-1.04-2.91-.54-3.94.43-.89,2.04-.22,3.05-.72-4.41-4.76-2.55-8.31.25-13.13.21-.36,1.33.26,1.6,0,1.87-1.7,2.13-4.23,1.94-6.64-.04-.5,1.26-.46,1.66-.17,2.31,1.7,3.73,3.98,4.31,6.98.5-.2,1.08-1.11,1.46-.7.9.97,1.13,2.2,1.69,3.28,1.82,3.51,1.08,7.47-1.84,10.27.95.56,2.46-.1,3.1.82s.45,3.25-.47,3.91c-1.41,1-1.77,2.01-2.44,3.65l-1.15,2.82-1.04,15.19.95,2.89ZM34.8,17.8c1.18,1.39,1.36,3,1.17,4.91,3.65-2.14,3.55-6.69,1.3-9.89-4.21,4.96-.11-2.52-5.03-6.38-.98,5.21-2.72,4.18-3.17,8.4-1.02-.08-.95-.89-1.66-1.65-2.21,3.2-2.85,7.62,1.15,9.89-.3-2.23.04-4.17,1.57-5.76,1.41-1.47,1.31-3.59,2.49-3.25.45.13.64,1.9,2.19,3.73ZM34.57,20.98c-.52-1.52-1.12-2.6-2.2-3.74-1.11,1.15-2.44,2.6-2.32,4.38.11,1.52,1.44,2.48,2.65,2.24s1.88-1.27,1.87-2.87ZM38.88,27.42c.6,0,.76-1.71.31-1.72l-13.51-.09c-.52,0-.47.73-.43,1,.04.3.3.89.87.89l12.76-.08ZM35.95,32.1c.47-1.37.82-2.04.84-3.03l-9.16.07c.22.88.34,2.6,1.39,2.86,2.28.57,4.57.14,6.93.1ZM33.98,48.99c.48-5.4.93-10,1.08-14.98-1.73-.02-3.53-.67-4.8.15-1.03.67.16,13.5.54,15.22.25.75,3.09.65,3.18-.4ZM30.01,51.6v.98h4.42v-.98h-4.42ZM33.46,54.36c-.65-.5-1.24-.29-2.18-.22-.72.91-.33,3.11,1.08,3.15,1.18.03,1.39-1.71,1.1-2.93Z"/><path class="cls-2" d="M46.49,58.48c-4.08-1.18-3.84,2.05-5.06.13-.2-.31.05-1.12.71-1.22,3.82-.59-.23-5.46,5.58-9.17.91,1.75.26,3.38.46,5.35,1.04-.71,1.65-1.6,2.57-2.56-1.51-2.87-1.41-6.19.86-8.63,1.25,1.31,1.16,2.86,1.81,4.5,4.48-4.97-2.77-2.32-.49-11.99,1.8,1.18,2.31,2.66,3.32,4.52.49-1.17.68-2.6.29-3.96-.26-.92-1.46-.96-2.06-1.52-1.6-1.52-2.48-3.76-2.46-5.93.01-1.3,3.93,2.18,4.17,2.36.89-5.07-5.24-1.98-6.74-8.31-.1-.4.63-.62.98-.52l3.02.9c.06-.69-.42-1.15-.99-1.61-4.3-3.48-4.39-7.89-2.91-7.31,5.41,2.09,3.74,6.39,5.9,9.25.78-1.68.91-3.52,2.54-4.99,4.45,7.73-3.1,7.83.23,12.41.94-1.66,1.54-3.19,3.16-3.61.81-.21,2.37,5.01-2.72,8.57-.85.6-.64,2.63-.55,3.65,1.05-.99,2.49-2.61,4.2-2.29.77.14.02,5.82-4.21,7.27-1.51.52-2.6,1.83-2.54,3.44,1.49-.09,2.79-1,4.13-.59.91.28,0,1.43-.32,1.99-3.53,6.41-8.35,1.57-8.99,5.88,1.09.77,2.85-.03,3.84,1.25-1.59,2.33-4.91,3.56-7.73,2.75ZM52.61,18.73c-.24-2.01-1.31-2.49-2.31-3.3.06,1.54.7,3.12,2.31,3.3ZM57.18,25.15c.8-1.32,1.11-2.75.61-4.5-.8,1.32-1.11,2.74-.61,4.5ZM58.62,33.43c1.77-1.26,2.7-3.04,2.09-4.85-1.34,1.42-2.14,2.94-2.09,4.85ZM55.2,42.24c.6-1.79-.2-3.29-1.34-4.41-.36,1.67.17,3.16,1.34,4.41ZM60.89,38.24c-1.49.71-2.42,1.98-3.02,3.51s3.29-1.22,3.02-3.51ZM51.16,45.2c.1,1.41-.61,4.45.68,3.96.3-.12.76-3.87-.68-3.96ZM57.95,48.22c-2.03.07-3.84,1-4.52,2.84,1.97-.06,3.55-.96,4.52-2.84ZM46.46,51.11c-.19.1-1.77,3.67-1.05,4.49.12-.33,3.05-5.48,1.05-4.49ZM51.68,56.12c-1.83-.4-3.35-.37-4.91.89,1.95,1.01,3.48.14,4.91-.89Z"/><path class="cls-2" d="M19.61,51.14c2.31,3.24-.33,5.54,2.71,6.24.42.1.72.52.73.82,0,.24-.15.65-.41.8-1.17.73-1.23-1.62-4.7-.54-2.79.87-5.85-.54-7.59-2.85,1.42-1.02,2.78-.71,4.34-1.16-1.7-4.11-7.54.48-10.38-7.74,1.83-.42,3.04.21,4.59.45.09-4.83-6.64-1.8-7.27-10.78,2.18-.24,3.23,1.28,4.73,2.52.83-6.13-5.74-3.82-3.9-12.63,1.75.65,2.4,2.18,3.65,3.77,2.33-4.92-1.59-3.6-1.22-7.93.13-1.55.19-3.19,1.51-4.38,1.39,1.25,1.47,2.8,2.06,4.53,2.3-2.23.05-6.44,6.59-9.01,1.42,5.55-4.73,7.16-4.4,9.09,1.69-.43,2.73-1.16,4.34-.72-2.55,7.18-7.62,2.89-6.94,8.32,1.29-.74,2.2-1.8,3.92-2.24.62,3.39-1.45,5.81-4.17,7.63-.71.56.19,2.75.47,3.5.97-1.46,1.65-2.78,3.23-3.67,2.49,8.36-4.61,6.81-.28,12.07.45-1.84.59-3.43,1.97-4.8,4.38,6.9-2.01,8.57,3.58,11.17-.3-1.58-.76-4.79,0-5.13s2.05,1.55,2.83,2.65ZM13.87,15.93c-.02-.65-.32-.72-.69-.33-.59,1.14-1.74,1.69-1.84,3.16,1.2-.57,1.68-1.56,2.54-2.83ZM7.22,25.11c.47-1.96-.19-2.97-.49-4.45-.71,1.48-.75,3.37.49,4.45ZM12.23,23.09c-1.27.39-2.28.96-2.95,2.16,1.65.53,4.52-2.64,2.95-2.16ZM5.41,32.99c-.02-1.98-.78-2.88-1.68-4.02-.63,1.57.16,3.32,1.68,4.02ZM10.44,30.65c-.02-.65-.32-.72-.69-.33-.59,1.14-1.74,1.69-1.84,3.16,1.2-.57,1.68-1.56,2.54-2.83ZM6.45,42.29c-.16-2-1.4-2.6-2.26-3.7-.28-.21-.77-.21-.83.21.53,1.64,1.45,3.08,3.09,3.49ZM10.13,38.32l-1.23,3.01c-.17.43.56.6.75.48s1.14-3.06.48-3.49ZM13.31,49.57c-.06-1.92.25-2.92-.18-4.4-.29.74-1.62,4.43.18,4.4ZM6.84,48.19c.55,1.87,2.41,2.85,4.11,2.92,1.03-.61-3.44-3.43-4.11-2.92ZM19.19,55.09c.56-2.13-.31-3.09-1.36-3.98-.29,1.58.06,3.26,1.36,3.98ZM17.8,56.8c-1.39-.65-2.75-.93-4.48-.72.19,1.41,3.05.96,4.48.72Z"/><path class="cls-1" d="M56.69,33.71c-.38-1.88-1.51-3.18-3.14-4.25-.18,1.91,1.13,3.43,3.14,4.25Z"/><path class="cls-1" d="M55.19,26.09c-.93-1.67-2.4-2.57-4.28-3.1.41,1.87,2.11,2.92,4.28,3.1Z"/></svg>