<?xml version="1.0" encoding="UTF-8"?><svg id="Layer_1" xmlns="http://www.w3.org/2000/svg" viewBox="0 0 64 64"><defs><style>.cls-1{fill:#000355;}.cls-2{fill:#f9b233;}</style></defs><path class="cls-1" d="M56.05,35.07c.01-.73,0-7.96-1.57-5.95-.57.74.59,5.11-.1,7.27-4.64-.75-9.23-.82-14.13-1.09,1.89-4.33.98-8.37-2.52-11.44,6.33-.35,12.26-.96,18.42-1.85,1.34-.19,2.31.32,3.01,1.53,2.17,3.93,2.55,8.62,1.31,13.03-2.16-.04-4.45.5-4.42-1.49Z"/><path class="cls-1" d="M27.06,24.06c.42.86-5.19,4.13-1.93,11.29l-13.61,1.11c-.69.06-1.04-.26-.93-.95.75-4.65.07-9.03-1.62-13.4,6.26.68,11.66,1.35,17.45,1.6.3.01.58.22.64.35Z"/><path class="cls-1" d="M56.28,42.55l-6.97-1.28c-3.23-.59-6.35-.9-9.64-1.02-1.04-.04-1.42-2.3-1.28-2.72.16-.49.72-.68,1.34-.65l11.79.58c1.47.07,2.9-.26,3.88,1.14.09,1.25.55,2.3.87,3.95Z"/><path class="cls-1" d="M25.96,40.12c-6.75.68-10.34,1.07-17.05,2.22.57-1.82.56-4.23,2.19-4.36,5.11-.41,10.09-1.2,15.34-.92.84.05.38,2.96-.48,3.05Z"/><path class="cls-1" d="M39.73,31.06c0,3.9-3.16,7.06-7.06,7.06s-7.06-3.16-7.06-7.06,3.16-7.06,7.06-7.06,7.06,3.16,7.06,7.06ZM38.56,31.05c0-3.25-2.63-5.89-5.89-5.89s-5.89,2.63-5.89,5.89,2.63,5.89,5.89,5.89,5.89-2.63,5.89-5.89Z"/><path class="cls-1" d="M5.14,26.46c-2.24,1.03,2.55.78.24,9.7-.1.38-.58.58-.74.64-1.81.74-3.29-8.35.18-13.74.3-.47,1.12-1.35,1.7-.93,1.25.9,1.83,2.57,1.99,4.06-1.27.23-2.4-.18-3.38.27Z"/><path class="cls-1" d="M29.52,45.9c-1.76-.45.55-.83-2.94-1.05l1.73-6.24c1.08.32,2.1.55,3.08,1.22l-1.87,6.06Z"/><path class="cls-1" d="M38.67,44.85c-.34.34-1.1-.05-1.41-.05-.65,0-.67.66-1.37,1.32l-1.98-6.54c1.24-.39,1.98-.84,3.06-1.01l1.7,6.27Z"/><path class="cls-1" d="M9.22,29.2c.13,2.13.85,8.72-2.46,7.4,2.32-6.07-1.77-9.64,1.45-8.99.54.11.95.81,1,1.59Z"/><path class="cls-1" d="M8.38,38.53c-.33,1.59-.73,3.01-2.02,4.3-1.26-1.28-1.47-2.72-1.68-4.19,1.2-.28,2.08-.44,3.69-.1Z"/><path class="cls-2" d="M38.56,31.05c0,3.25-2.63,5.89-5.89,5.89s-5.89-2.63-5.89-5.89,2.63-5.89,5.89-5.89,5.89,2.63,5.89,5.89ZM37.11,31.03c0-2.46-1.99-4.45-4.45-4.45s-4.45,1.99-4.45,4.45,1.99,4.45,4.45,4.45,4.45-1.99,4.45-4.45Z"/><path class="cls-2" d="M39.64,41.67c-.27,1.6,1.69,4.59.76,5.33-.7.56-2.1-.71-2.85-.04s-.93,2.75-2.05,2.35c-.19-.07-.35-.32-.47-.73l-1.96-6.51c-.13-.44-.43-.52-.6-.46-.16.05-1.6,5.79-2.44,7.59-.73,1.55-1.95-1.96-2.54-2.27-.89-.47-2.06.44-2.57,0-.95-.82.73-2.95.9-5.09-5.46,0-13.12,1.37-18.56,2.52-3.01.64-3.9-3.35-3.85-4.5.07-1.54-.96-2.27-1.4-3.51-2.4-6.74.78-16.41,4.3-16.04l17.5,1.83c1.56.16,2.35-.65,3.64-.9,2.96-.57,6.06-.05,9.09-.15.72-.02,1.18.94,1.83,1.13,6.09-.21,12-.91,18.06-1.86,1.19-.19,2.2.23,3,1.08,3.69,3.93,3.94,10.95,2.57,15.88-.53,1.92-3.08.35-5.15.9.23,1.44.31,2.72,1.14,4.17,1.23-.45,1.4-2.88,2.07-3.13,1.58-.59.87,2.45-.86,4.35-.79.87-1.83.88-2.91.64-5.55-1.22-10.94-2.13-16.66-2.57ZM5.14,26.46c.98-.45,2.11-.04,3.38-.27-.16-1.49-.74-3.16-1.99-4.06-.58-.42-1.4.46-1.7.93-3.47,5.38-1.99,14.47-.18,13.74.16-.07.65-.27.74-.64,2.31-8.92-2.48-8.67-.24-9.7ZM56.05,35.07c-.03,1.99,2.26,1.46,4.42,1.49,1.24-4.4.86-9.1-1.31-13.03-.7-1.21-1.67-1.73-3.01-1.53-6.16.89-12.09,1.5-18.42,1.85,3.49,3.07,4.41,7.11,2.52,11.44,4.9.27,9.49.34,14.13,1.09.69-2.16-.47-6.53.1-7.27,1.57-2.01,1.58,5.21,1.57,5.95ZM27.06,24.06c-.06-.12-.34-.33-.64-.35-5.79-.25-11.19-.92-17.45-1.6,1.69,4.36,2.37,8.75,1.62,13.4-.11.69.23,1,.93.95l13.61-1.11c-3.26-7.16,2.35-10.43,1.93-11.29ZM39.73,31.06c0-3.9-3.16-7.06-7.06-7.06s-7.06,3.16-7.06,7.06,3.16,7.06,7.06,7.06,7.06-3.16,7.06-7.06ZM9.22,29.2c-.05-.78-.46-1.48-1-1.59-3.22-.65.86,2.92-1.45,8.99,3.3,1.32,2.59-5.27,2.46-7.4ZM25.96,40.12c.87-.09,1.32-3.01.48-3.05-5.25-.28-10.24.5-15.34.92-1.63.13-1.62,2.54-2.19,4.36,6.71-1.16,10.3-1.54,17.05-2.22ZM56.28,42.55c-.32-1.66-.79-2.7-.87-3.95-.98-1.4-2.42-1.07-3.88-1.14l-11.79-.58c-.62-.03-1.18.16-1.34.65-.14.42.24,2.68,1.28,2.72,3.29.12,6.4.43,9.64,1.02l6.97,1.28ZM8.38,38.53c-1.61-.33-2.49-.18-3.69.1.2,1.48.42,2.92,1.68,4.19,1.29-1.29,1.69-2.71,2.02-4.3ZM29.52,45.9l1.87-6.06c-.98-.68-2-.9-3.08-1.22l-1.73,6.24c3.49.22,1.18.6,2.94,1.05ZM38.67,44.85l-1.7-6.27c-1.09.17-1.82.61-3.06,1.01l1.98,6.54c.7-.67.72-1.32,1.37-1.32.31,0,1.07.39,1.41.05Z"/><circle class="cls-1" cx="32.66" cy="31.03" r="4.45"/></svg>